<?xml version="1.0" encoding="UTF-8"?>
<svg xmlns="http://www.w3.org/2000/svg" xmlns:xlink="http://www.w3.org/1999/xlink" width="133pt" height="133pt" viewBox="0 0 133 133" version="1.1">
<g id="surface1">
<path style=" stroke:none;fill-rule:nonzero;fill:rgb(14.901961%,30.196078%,89.411765%);fill-opacity:1;" d="M 132.730469 26.082031 L 120.636719 122.039062 L 66.285156 132.714844 L 12.082031 122.054688 L 0 26.082031 Z M 132.730469 26.082031 "/>
<path style=" stroke:none;fill-rule:nonzero;fill:rgb(16.078431%,39.607843%,94.509804%);fill-opacity:1;" d="M 110.28125 115.925781 L 120.613281 33.929688 L 66.363281 33.929688 L 66.363281 124.554688 Z M 110.28125 115.925781 "/>
<path style=" stroke:none;fill-rule:nonzero;fill:rgb(92.156863%,92.156863%,92.156863%);fill-opacity:1;" d="M 27.691406 69.523438 L 29.179688 81.292969 L 66.363281 81.292969 L 66.363281 69.523438 Z M 27.691406 69.523438 "/>
<path style=" stroke:none;fill-rule:nonzero;fill:rgb(92.156863%,92.156863%,92.156863%);fill-opacity:1;" d="M 66.363281 45.699219 L 24.703125 45.699219 L 26.207031 57.472656 L 66.363281 57.472656 Z M 66.363281 45.699219 "/>
<path style=" stroke:none;fill-rule:nonzero;fill:rgb(92.156863%,92.156863%,92.156863%);fill-opacity:1;" d="M 66.363281 112.339844 L 66.363281 100.097656 L 66.289062 100.105469 L 47.785156 96.566406 L 46.601562 87.183594 L 29.925781 87.183594 L 32.246094 105.664062 L 66.289062 112.355469 Z M 66.363281 112.339844 "/>
<path style=" stroke:none;fill-rule:nonzero;fill:rgb(0%,0%,0%);fill-opacity:1;" d="M 31.234375 0 L 51.359375 0 L 51.359375 5.960938 L 39.652344 5.960938 L 39.652344 11.921875 L 51.359375 11.921875 L 51.359375 17.886719 L 31.234375 17.886719 Z M 31.234375 0 "/>
<path style=" stroke:none;fill-rule:nonzero;fill:rgb(0%,0%,0%);fill-opacity:1;" d="M 55.382812 0 L 75.511719 0 L 75.511719 5.183594 L 63.804688 5.183594 L 63.804688 6.222656 L 75.511719 6.222656 L 75.511719 18.144531 L 55.382812 18.144531 L 55.382812 12.703125 L 67.09375 12.703125 L 67.09375 11.664062 L 55.382812 11.664062 Z M 55.382812 0 "/>
<path style=" stroke:none;fill-rule:nonzero;fill:rgb(0%,0%,0%);fill-opacity:1;" d="M 79.539062 0 L 99.660156 0 L 99.660156 5.183594 L 87.957031 5.183594 L 87.957031 6.222656 L 99.660156 6.222656 L 99.660156 18.144531 L 79.539062 18.144531 L 79.539062 12.703125 L 91.246094 12.703125 L 91.246094 11.664062 L 79.539062 11.664062 Z M 79.539062 0 "/>
<path style=" stroke:none;fill-rule:nonzero;fill:rgb(100%,100%,100%);fill-opacity:1;" d="M 86.761719 81.292969 L 84.835938 96.558594 L 66.304688 100.105469 L 66.304688 112.351562 L 100.375 105.664062 L 100.621094 103.671875 L 104.523438 72.6875 L 104.929688 69.523438 L 107.929688 45.699219 L 66.304688 45.699219 L 66.304688 57.472656 L 89.71875 57.472656 L 88.210938 69.523438 L 66.304688 69.523438 L 66.304688 81.292969 Z M 86.761719 81.292969 "/>
</g>
</svg>
