<?xml version="1.0" encoding="UTF-8"?>
<svg xmlns="http://www.w3.org/2000/svg" xmlns:xlink="http://www.w3.org/1999/xlink" width="133pt" height="133pt" viewBox="0 0 133 133" version="1.1">
<g id="surface1">
<path style=" stroke:none;fill-rule:evenodd;fill:rgb(0%,0%,0%);fill-opacity:1;" d="M 10.035156 65.695312 C 10.011719 77.90625 13.09375 85.199219 18.007812 81.882812 L 18.007812 49.492188 C 13.03125 45.082031 10.054688 54.003906 10.035156 65.695312 M 18.15625 2.664062 L 24.925781 2.664062 L 24.925781 95.886719 C 18.4375 98.972656 12.226562 100.933594 7.78125 93.699219 C 2.058594 84.390625 1.597656 54.800781 6.125 41.621094 C 8.417969 34.929688 13.042969 30.238281 18.007812 33.300781 L 18.007812 3.976562 C 17.996094 3.359375 17.980469 2.746094 18.15625 2.664062 "/>
<path style=" stroke:none;fill-rule:evenodd;fill:rgb(0%,0%,0%);fill-opacity:1;" d="M 35.90625 23.242188 L 29.136719 23.242188 L 29.136719 2.664062 L 35.90625 2.664062 Z M 35.90625 23.242188 "/>
<path style=" stroke:none;fill-rule:evenodd;fill:rgb(0%,0%,0%);fill-opacity:1;" d="M 117.121094 82.761719 C 124.5 91.101562 125.316406 44.332031 117.875 48.613281 C 113.253906 51.292969 113.402344 78.546875 117.121094 82.761719 M 117.425781 32.425781 C 123.058594 30.671875 127.3125 37.90625 129.007812 49.058594 C 131.902344 68.074219 128.847656 89.902344 124.191406 96.328125 C 121.78125 99.644531 119.253906 99.976562 116.972656 99.382812 C 109.917969 97.605469 105.472656 76.6875 107.949219 53.433594 C 108.339844 49.789062 108.773438 47.566406 109.003906 46.4375 C 110.535156 38.851562 113.125 33.769531 117.425781 32.425781 "/>
<path style=" stroke:none;fill-rule:evenodd;fill:rgb(0%,0%,0%);fill-opacity:1;" d="M 45.226562 75.320312 C 43.359375 84.46875 48.0625 86.667969 51.097656 84.070312 L 51.097656 70.5 C 48.765625 71.445312 46.113281 71.015625 45.226562 75.320312 M 57.113281 96.761719 C 51.519531 97.695312 43.023438 103.246094 39.964844 92.386719 C 38.171875 86.007812 38.363281 73.839844 39.964844 67.882812 C 42.035156 60.167969 46.5625 58.480469 50.640625 57.375 C 51.015625 54.722656 50.765625 50.390625 50.34375 48.613281 C 46.609375 45.859375 42.902344 50.140625 40.269531 53.433594 L 40.269531 38.121094 C 44.242188 32.800781 53.453125 27.207031 56.210938 39.433594 C 57.65625 45.859375 57.113281 57.058594 57.113281 67.003906 Z M 57.113281 96.761719 "/>
<path style=" stroke:none;fill-rule:evenodd;fill:rgb(0%,0%,0%);fill-opacity:1;" d="M 80.875 97.640625 L 74.109375 97.640625 L 74.109375 72.257812 C 74.109375 63.894531 74.574219 53.296875 73.054688 49.9375 C 71.867188 47.292969 69.046875 48.613281 67.339844 49.9375 L 67.339844 97.640625 L 60.570312 97.640625 L 60.570312 36.8125 C 67.488281 31.570312 79.980469 25.964844 80.875 51.246094 C 81.316406 63.710938 80.546875 82.40625 80.875 97.640625 "/>
<path style=" stroke:none;fill-rule:evenodd;fill:rgb(0%,0%,0%);fill-opacity:1;" d="M 90.953125 76.632812 C 92.089844 81.996094 95.175781 84.003906 97.722656 80.574219 C 97.582031 70.332031 97.535156 59.8125 97.574219 49.058594 C 91.71875 44.558594 88.234375 63.835938 90.953125 76.632812 M 107.949219 35.058594 C 107.347656 40.296875 106.464844 44.742188 105.695312 49.492188 C 104.992188 49.949219 104.390625 48.683594 104.039062 49.492188 C 103.882812 70.832031 105.601562 99.746094 102.6875 115.140625 C 100.929688 124.414062 97.699219 130.359375 92.757812 131.339844 C 89.160156 132.058594 86.363281 130.339844 83.730469 127.398438 L 83.730469 109.011719 C 86.820312 114.261719 94.621094 118.535156 96.816406 107.699219 C 97.464844 104.523438 97.425781 101.21875 97.722656 96.328125 C 96.304688 96.546875 94.933594 98.449219 93.207031 98.515625 C 86.113281 98.789062 81.726562 82.351562 83.433594 59.5625 C 84.089844 50.746094 85.867188 43.648438 88.246094 39.433594 C 93.183594 30.671875 100.777344 31.332031 107.949219 35.058594 "/>
<path style=" stroke:none;fill-rule:evenodd;fill:rgb(0%,0%,0%);fill-opacity:1;" d="M 35.90625 33.65625 C 35.898438 48.148438 35.898438 58.574219 35.898438 76.199219 C 35.613281 93.503906 35.679688 107.300781 33.5 115.585938 C 33.070312 117.214844 32.15625 119.59375 31.390625 121.269531 C 30.75 122.683594 29.527344 125.519531 28.835938 125.65625 C 28.136719 125.78125 26.339844 122.832031 25.527344 121.714844 C 24.457031 120.242188 23.472656 118.308594 22.371094 117.328125 C 24.945312 112.691406 27.390625 109.203125 28.382812 99.828125 C 29.25 91.671875 29.136719 79.84375 29.136719 68.3125 C 29.136719 56.933594 29.152344 43.703125 29.152344 33.65625 Z M 35.90625 33.65625 "/>
</g>
</svg>
