<?xml version="1.0" encoding="UTF-8"?>
<svg xmlns="http://www.w3.org/2000/svg" xmlns:xlink="http://www.w3.org/1999/xlink" width="133pt" height="133pt" viewBox="0 0 133 133" version="1.1">
<g id="surface1">
<path style=" stroke:none;fill-rule:nonzero;fill:rgb(0%,0%,0%);fill-opacity:1;" d="M 28.203125 0 L 34.183594 0 L 34.183594 5.929688 L 39.699219 5.929688 L 39.699219 0 L 45.683594 0 L 45.683594 17.949219 L 39.699219 17.949219 L 39.699219 11.96875 L 34.234375 11.96875 L 34.234375 17.949219 L 28.203125 17.949219 M 53.59375 5.984375 L 48.3125 5.984375 L 48.3125 0 L 64.882812 0 L 64.882812 5.984375 L 59.574219 5.984375 L 59.574219 17.949219 L 53.59375 17.949219 M 67.511719 0 L 73.777344 0 L 77.632812 6.320312 L 81.480469 0 L 87.75 0 L 87.75 17.949219 L 81.765625 17.949219 L 81.765625 9.050781 L 77.578125 15.503906 L 73.390625 9.050781 L 73.390625 17.949219 L 67.511719 17.949219 M 90.71875 0 L 96.699219 0 L 96.699219 12.019531 L 105.179688 12.019531 L 105.179688 17.949219 L 90.71875 17.949219 "/>
<path style=" stroke:none;fill-rule:nonzero;fill:rgb(89.411765%,30.196078%,14.901961%);fill-opacity:1;" d="M 27.992188 122.535156 L 19.40625 26.171875 L 113.792969 26.171875 L 105.210938 122.480469 L 66.523438 133.199219 "/>
<path style=" stroke:none;fill-rule:nonzero;fill:rgb(94.509804%,39.607843%,16.078431%);fill-opacity:1;" d="M 66.601562 125.003906 L 66.601562 34.082031 L 105.179688 34.082031 L 97.820312 116.292969 "/>
<path style=" stroke:none;fill-rule:nonzero;fill:rgb(92.156863%,92.156863%,92.156863%);fill-opacity:1;" d="M 36.941406 45.867188 L 66.601562 45.867188 L 66.601562 57.675781 L 49.898438 57.675781 L 50.992188 69.773438 L 66.601562 69.773438 L 66.601562 81.558594 L 40.167969 81.558594 M 40.691406 87.492188 L 52.550781 87.492188 L 53.386719 96.933594 L 66.601562 100.472656 L 66.601562 112.800781 L 42.351562 106.039062 "/>
<path style=" stroke:none;fill-rule:nonzero;fill:rgb(100%,100%,100%);fill-opacity:1;" d="M 96.152344 45.867188 L 66.550781 45.867188 L 66.550781 57.675781 L 95.0625 57.675781 M 93.992188 69.773438 L 66.550781 69.773438 L 66.550781 81.582031 L 81.117188 81.582031 L 79.738281 96.933594 L 66.550781 100.472656 L 66.550781 112.75 L 90.742188 106.039062 "/>
</g>
</svg>
