<?xml version="1.0" encoding="UTF-8"?>
<svg xmlns="http://www.w3.org/2000/svg" xmlns:xlink="http://www.w3.org/1999/xlink" width="133pt" height="133pt" viewBox="0 0 133 133" version="1.1">
<g id="surface1">
<path style=" stroke:none;fill-rule:nonzero;fill:rgb(0%,0%,0%);fill-opacity:1;" d="M 39.601562 82.304688 C 34.554688 79.199219 29.167969 76.222656 25.492188 72.03125 C 17.746094 64.640625 11.789062 56.082031 7.707031 47.089844 C 5.242188 41.242188 4.402344 34.976562 1.21875 29.351562 C -2.097656 25.269531 1.792969 20.804688 7.511719 19.507812 C 10.0625 19.125 14.542969 17.242188 9.132812 18.589844 C 4.289062 21.367188 3.8125 16.0625 8.785156 15.730469 C 12.179688 15.375 13.425781 13.207031 12.265625 11.253906 C 8.625 9.394531 21.097656 7.359375 14.820312 4.589844 C 8.289062 -0.925781 23.964844 -1.988281 20.097656 4.273438 C 19.164062 9.085938 31.054688 3.390625 28.292969 8.949219 C 31.09375 11.617188 38.785156 9.558594 38.59375 13.304688 C 42.671875 13.523438 44.074219 16.207031 47.902344 16.417969 C 51.878906 17.8125 59.074219 18.917969 60.425781 22.417969 C 56.484375 24.859375 47.363281 17.382812 46.925781 24.128906 C 48.117188 34.105469 47.816406 44.371094 52.476562 53.871094 C 54.6875 59.621094 60.035156 64.144531 64.867188 68.621094 C 69.492188 73.007812 75.75 76.097656 82.136719 78.699219 C 87.738281 80.757812 93.769531 82.125 99.875 82.988281 C 102.347656 81.507812 106.71875 76.007812 110.582031 78.324219 C 110.765625 80.933594 102.921875 83.78125 110.207031 83.488281 C 114.496094 82.480469 117.460938 86.078125 120.996094 82.828125 C 124.238281 85.839844 134.5 80.910156 132.183594 87.058594 C 129.058594 88.636719 124.496094 87.679688 121.367188 89.855469 C 116.207031 87.835938 112.09375 91.652344 106.378906 91.175781 C 100.03125 92.066406 93.570312 92.421875 87.140625 92.429688 C 76.578125 91.78125 65.792969 91.503906 55.753906 88.628906 C 50.09375 87.339844 44.570312 84.828125 39.601562 82.304688 Z M 48.523438 85.324219 C 54.042969 87.191406 59.445312 89.15625 65.496094 89.757812 C 75.105469 90.796875 85.03125 92.410156 94.664062 90.941406 C 90.304688 89.402344 85.792969 91.539062 81.445312 89.839844 C 76.234375 90.71875 70.640625 89.617188 65.335938 89.074219 C 59.3125 86.972656 52.804688 85.53125 47.167969 82.808594 C 40.109375 80.796875 50.8125 85.386719 52.714844 85.761719 C 57.121094 87.71875 47.867188 84.757812 46.5625 83.945312 C 42.867188 82.328125 42.398438 82.667969 46.199219 84.308594 C 46.960938 84.65625 47.714844 85.027344 48.523438 85.324219 Z M 38.003906 79.515625 C 43.359375 81.066406 37.984375 76.570312 35.535156 76.832031 C 34.441406 75.359375 31.378906 74.425781 33.542969 73.636719 C 29.652344 74.691406 29.464844 69.621094 27.636719 70.347656 C 23.519531 69.332031 26.035156 65.730469 21.128906 63.519531 C 20.679688 61.191406 16.257812 59.171875 14.855469 55.65625 C 14.226562 53.855469 9.851562 48.695312 12.539062 53.5 C 14.828125 58.128906 18.855469 62.089844 22.203125 66.050781 C 24.804688 69.8125 27.875 73.757812 32.613281 76.109375 C 34.210938 77.304688 35.753906 79.140625 38.003906 79.515625 Z M 22.585938 66.277344 C 22.769531 65.644531 23.558594 67.644531 22.585938 66.277344 Z M 44.417969 81.371094 C 45.601562 80.960938 42.710938 80.851562 44.417969 81.371094 Z M 47.324219 82.203125 C 47.019531 81.058594 46 82.84375 47.324219 82.203125 Z M 50.964844 83.390625 C 52.6875 82.101562 48.289062 82.574219 50.964844 83.390625 Z M 57.195312 86.105469 C 58.25 84.890625 53.832031 85.648438 57.195312 86.105469 Z M 45.21875 79.582031 C 47.910156 78.21875 41.75 79.5625 45.21875 79.582031 Z M 47.949219 80.644531 C 47.875 79.925781 46.980469 80.96875 47.949219 80.644531 Z M 61.589844 87.300781 C 63.785156 88.382812 74.398438 89.675781 67.753906 87.746094 C 66.640625 87.925781 55.429688 85.261719 61.589844 87.300781 Z M 39.9375 74.117188 C 39.726562 73.398438 36.535156 73.320312 39.9375 74.117188 Z M 46.285156 77.011719 C 47.941406 76.109375 42.863281 76.316406 46.285156 77.011719 Z M 51.628906 79.574219 C 54.003906 78.867188 47.78125 78.867188 51.628906 79.574219 Z M 37.351562 71.914062 C 39.925781 73.460938 47.730469 72.113281 41.292969 70.996094 C 38.367188 69.773438 31.761719 68.941406 36.261719 71.726562 Z M 55.25 80.449219 C 56.320312 79.023438 50.753906 79.640625 55.25 80.449219 Z M 49.808594 77.074219 C 56.101562 78.464844 44.519531 73.964844 48.257812 76.558594 L 49.085938 76.855469 Z M 60.710938 82 C 66.671875 82.046875 55.328125 81.363281 60.710938 82 Z M 35.058594 69.222656 C 34.828125 68.351562 33.59375 69.292969 35.058594 69.222656 Z M 70.785156 86.421875 C 70.945312 84.859375 68.84375 87.585938 70.785156 86.421875 Z M 45.226562 74.089844 C 44.871094 73.265625 43.371094 74.054688 45.226562 74.089844 Z M 35.625 68.675781 C 39.050781 68.515625 30.941406 67.5 35.625 68.675781 Z M 24.25 62.929688 C 23.824219 61.640625 20.535156 60.625 24.25 62.929688 Z M 54.117188 77.746094 C 53.492188 77.191406 53.824219 77.863281 54.117188 77.746094 Z M 72.703125 86.667969 C 72.644531 85.808594 71.691406 86.992188 72.703125 86.667969 Z M 52.46875 76.417969 C 52.804688 75.316406 49.554688 76.082031 52.46875 76.417969 Z M 38.625 69.554688 C 41.167969 69.339844 34.542969 68.214844 38.625 69.554688 Z M 62.046875 80.933594 C 66.011719 79.707031 58.183594 80.335938 62.046875 80.933594 Z M 49.867188 74.46875 C 54.433594 74.925781 44.425781 72.035156 48.859375 74.207031 Z M 65.75 82.105469 C 70.015625 80.113281 68.609375 86.773438 72.988281 82.667969 C 77.3125 80.199219 69.261719 85.714844 74.582031 83.109375 C 78.429688 81.097656 84.117188 84.0625 87.710938 85.027344 C 90.292969 84.929688 92.808594 86.773438 95.457031 85.652344 C 100.554688 84.582031 85.480469 84.0625 89.433594 82.160156 C 84.769531 83.21875 81.324219 80.894531 79.027344 78.558594 C 73.792969 77.609375 67.746094 75.519531 65.132812 71.894531 C 64.066406 70.535156 66.671875 72.089844 64.210938 69.867188 C 61.058594 67.675781 59.484375 65.183594 57.367188 62.523438 C 54.839844 61.464844 54.546875 58.359375 54.289062 62.417969 C 54.308594 59.859375 51.234375 58.136719 50.484375 58.851562 C 50.46875 56.386719 53.777344 57.621094 51.460938 55.796875 C 50.964844 53.242188 49.332031 50.582031 48.839844 47.695312 C 48.070312 46.308594 48.726562 43.328125 46.226562 46.476562 C 45.3125 49.804688 45.921875 42.394531 47.339844 44.832031 C 49.203125 42.339844 46.667969 42.628906 46.570312 42.976562 C 47.777344 40.875 47.339844 37.886719 46.25 39.027344 C 46.894531 36.796875 47.273438 30.816406 45.285156 31.878906 C 46.488281 29.542969 47.570312 21.199219 42.335938 24.386719 C 40.214844 24.402344 36.546875 24.984375 34.8125 25.660156 C 40.25 28.003906 34.265625 26.507812 32.046875 26.132812 C 31.753906 28.300781 29.566406 27.363281 26.824219 27.386719 C 31.207031 27.8125 24.691406 30.886719 22.1875 29.691406 C 18.921875 30.90625 24.996094 33.953125 22.246094 34.894531 C 22.585938 36.3125 17.25 34.382812 17.667969 37.660156 C 14.503906 36.613281 17.238281 41.542969 18.820312 39.875 C 24.203125 41.019531 22.613281 43.617188 22.746094 46.082031 C 21.867188 47.519531 18.410156 42.703125 21.972656 42.929688 C 19.160156 39.355469 18.867188 41.632812 16.53125 43.292969 C 15.988281 43.414062 22.484375 45.652344 18.410156 46.761719 C 21.992188 47.191406 22.101562 49.648438 22.835938 51.203125 C 24.988281 52.960938 24.539062 49.261719 27.128906 51.375 C 25.492188 49.492188 18.476562 46.074219 24.125 47.171875 C 24.097656 45.277344 23.101562 43.75 24.835938 43.785156 C 26.550781 41.363281 23.042969 49.773438 26.902344 46.6875 C 27.972656 46.324219 28.246094 44.257812 30.164062 46.886719 C 32.957031 49.035156 31.171875 50.589844 27.234375 48.617188 C 27.941406 50.492188 32.507812 51.15625 31.644531 54.085938 C 32.554688 56.652344 33.828125 55.707031 34.933594 55.5625 C 35.804688 58.058594 36.300781 56.222656 36.34375 55.03125 C 40.328125 55.699219 39.394531 57.539062 40.644531 58.824219 C 43.386719 59.796875 36.714844 52.257812 41.425781 56.5625 C 46.382812 60.058594 43.285156 61.523438 38.832031 60.960938 C 41.652344 60.785156 42.554688 63.941406 46.078125 63.828125 C 49.289062 65.023438 51.46875 69.609375 45.933594 67.703125 C 44.015625 66.34375 37.210938 64.671875 42.765625 67.25 C 47.886719 69.113281 51.964844 70.21875 56.917969 72.550781 C 60.453125 74.527344 61.980469 76.789062 63.320312 77.238281 C 60.347656 78.34375 54.359375 76.347656 58.808594 75.738281 C 56.027344 75.34375 52.90625 74.246094 55.566406 76.945312 C 57.824219 78.421875 63.570312 78.265625 64.601562 78.433594 C 63.734375 79.9375 62.230469 80.054688 64.636719 80.175781 C 61.953125 81.292969 65.503906 81.464844 65.75 82.105469 Z M 60.253906 69.980469 C 58.625 68.644531 58.195312 66.140625 59.96875 68.316406 C 60.871094 68.601562 62.867188 72.40625 60.253906 69.980469 Z M 78.140625 78.867188 C 79.160156 78.8125 78.171875 79.46875 78.140625 78.867188 Z M 57.679688 66.703125 C 57.613281 64.6875 58.269531 68.265625 57.679688 66.703125 Z M 55.902344 64.835938 C 53.84375 61.730469 58.492188 65.714844 55.902344 64.835938 Z M 34.355469 53.210938 C 35.566406 52.960938 34.953125 54.828125 34.355469 53.210938 Z M 51.507812 60.480469 C 52.242188 58.300781 52.375 62.304688 51.507812 60.480469 Z M 39.394531 53.890625 C 38.539062 52.691406 41.175781 55.023438 39.394531 53.890625 Z M 49.78125 56.5 C 47.835938 53.085938 51.167969 54.628906 50.21875 57.054688 Z M 31.863281 47.152344 C 30.992188 46.03125 29.550781 42.75 30.019531 41.746094 C 30.429688 43.382812 34.449219 48.769531 31.988281 43.984375 C 29.261719 39.96875 35.25 45.285156 35.867188 46.285156 C 36.148438 47.28125 34.179688 46.011719 35.515625 48.351562 C 33.078125 45.691406 34.078125 49.820312 31.863281 47.152344 Z M 26.320312 44.167969 C 26.546875 41.566406 27.589844 45.949219 26.320312 44.167969 Z M 28.816406 44.835938 C 30.007812 42.875 30.828125 47.574219 28.816406 44.835938 Z M 22.816406 41.210938 C 20.757812 39.609375 19.265625 38.128906 22.917969 40.21875 C 24.320312 40.261719 19.792969 36.855469 23.253906 39.136719 C 26.898438 39.65625 25.054688 43.804688 22.816406 41.210938 Z M 25.96875 41.148438 C 27.160156 40.222656 26.605469 42.0625 25.96875 41.148438 Z M 27.90625 41.632812 C 26.089844 38.972656 30.113281 42.75 27.90625 41.632812 Z M 24.058594 38.753906 C 18.058594 34.585938 31.582031 40.933594 25.035156 39.53125 Z M 41.234375 46.558594 C 38.640625 45.34375 40.542969 37.996094 41.433594 43.019531 C 43.953125 42.382812 41.292969 45.617188 43.171875 45.585938 C 42.875 47.625 42.027344 48.359375 41.234375 46.558594 Z M 47.582031 49.496094 C 47.84375 47.28125 48.125 51.011719 47.582031 49.496094 Z M 46.484375 48.636719 C 46.769531 47.695312 46.511719 49.757812 46.484375 48.636719 Z M 25.226562 37.390625 C 21.375 33.230469 36.421875 41.585938 27.695312 38.4375 C 26.785156 38.25 25.683594 38.183594 25.226562 37.390625 Z M 37.460938 42.457031 C 37.097656 38.957031 38.28125 43.035156 37.460938 42.457031 Z M 46.753906 47.113281 C 47.472656 45.125 46.808594 48.433594 46.753906 47.113281 Z M 25.824219 35.800781 C 28.113281 35.417969 35.308594 38.941406 28.695312 36.804688 C 27.96875 36.171875 26.398438 36.457031 25.824219 35.800781 Z M 45.484375 43.457031 C 45.722656 39.878906 46.847656 41.324219 45.488281 43.972656 Z M 27.523438 34.554688 C 28.457031 33.488281 25.046875 29.722656 28.015625 33.207031 C 29.300781 34.003906 31.730469 34.539062 29.578125 34.875 C 32.957031 37.203125 28.761719 35.503906 27.523438 34.554688 Z M 44.503906 42.34375 C 45.148438 38.265625 45.074219 44.726562 44.503906 42.34375 Z M 25.578125 30.792969 C 26.289062 30.554688 25.957031 31.53125 25.578125 30.792969 Z M 30.007812 32.851562 C 31.144531 30.980469 32.105469 34.9375 30.007812 32.851562 Z M 42.5 38.289062 C 42.488281 37.570312 42.730469 39.328125 42.5 38.289062 Z M 41.777344 37.035156 C 40.039062 33.691406 43.390625 38.800781 41.777344 37.035156 Z M 40.710938 34.839844 C 40.425781 33.457031 41.699219 36.578125 40.710938 34.839844 Z M 42.441406 32.640625 C 41.253906 31 43.949219 25.414062 44.246094 28.878906 C 42.992188 31.578125 43.886719 33.085938 44.757812 29.464844 C 46.378906 26.617188 44.414062 35.089844 42.441406 32.640625 Z M 44.226562 24.332031 C 44.742188 23.835938 44.339844 24.929688 44.226562 24.332031 Z M 41.253906 70.152344 C 40.542969 69.667969 41.339844 70.453125 41.253906 70.152344 Z M 47.378906 72.570312 C 50.785156 73.257812 50.773438 72.160156 47.691406 71.832031 C 46.03125 70.625 40.804688 69.347656 45.488281 71.683594 C 45.792969 72.292969 46.769531 72.277344 47.378906 72.570312 Z M 35.28125 66.285156 C 37.152344 67.386719 42.347656 69.390625 37.957031 66.707031 C 39.433594 65.363281 35.117188 64.644531 36.546875 63.738281 C 32.90625 61.996094 33.667969 62.152344 36.230469 62.207031 C 31.847656 60.675781 36.859375 60.789062 36.621094 60.003906 C 34.933594 59.742188 28.234375 57.679688 32.171875 60.175781 C 28.167969 58.578125 31.21875 60.769531 30.011719 60.539062 C 25.910156 59.667969 33.660156 62.980469 29.359375 62.160156 C 31.710938 63.613281 35.6875 65.886719 30.351562 63.699219 C 29.652344 64.488281 34.171875 65.6875 35.28125 66.285156 Z M 41.683594 69.171875 C 49.476562 71.128906 37.863281 66.765625 41.683594 69.171875 Z M 74.492188 84.707031 C 74.589844 83.496094 73.421875 85.734375 74.492188 84.707031 Z M 77.863281 85.816406 C 79.65625 84.453125 77.933594 87.980469 80.835938 85.480469 C 80.867188 83.683594 80.746094 82.628906 77.503906 84.804688 C 76.597656 85.195312 76.199219 86.84375 77.863281 85.816406 Z M 24.339844 59.535156 C 23.792969 57.839844 20.472656 57.84375 24.339844 59.535156 Z M 27.941406 61.378906 C 26.597656 59.644531 23.167969 59.8125 27.941406 61.378906 Z M 48.421875 71.035156 C 50.421875 72.425781 57.605469 72.058594 50.851562 71.207031 C 49.855469 70.054688 44.5 70.328125 48.421875 71.035156 Z M 76.570312 84.632812 C 79.65625 82.613281 73.59375 85.53125 76.570312 84.632812 Z M 82.976562 88.070312 C 83 87.421875 81.648438 88.351562 82.976562 88.070312 Z M 82.984375 87.160156 C 86.394531 84.339844 79.6875 87.328125 82.984375 87.160156 Z M 15.488281 53.742188 C 12.582031 50.5 13.683594 49.042969 10.875 46.398438 C 10.347656 44.371094 6.070312 39.78125 8.667969 44.644531 C 11.042969 47.492188 11.75 51.894531 15.488281 53.742188 Z M 81.917969 86.265625 C 88.1875 83.097656 79.351562 84.886719 81.917969 86.265625 Z M 86.699219 87.734375 C 89.847656 85.628906 84.71875 87.292969 86.699219 87.734375 Z M 23.273438 55.953125 C 24.167969 54.90625 20.953125 55.816406 23.273438 55.953125 Z M 85.707031 86.730469 C 88.746094 85.199219 85.003906 85.433594 85.15625 86.871094 Z M 44.445312 66.402344 C 44.347656 65.363281 42.835938 66.488281 44.445312 66.402344 Z M 47 67.546875 C 46.183594 66.269531 45.753906 67.75 47 67.546875 Z M 90.585938 87.761719 C 94.476562 85.570312 88.222656 87.339844 89.769531 88.183594 Z M 89.089844 87.203125 C 92.265625 85.121094 85.746094 88.125 89.089844 87.203125 Z M 96.714844 91.171875 C 98.839844 90.054688 94.121094 90.808594 96.714844 91.171875 Z M 25.226562 55.195312 C 28.082031 55.699219 36.640625 60.695312 31.589844 55.546875 C 29.007812 54.949219 30.554688 50.007812 27.921875 50.882812 C 29.691406 53.195312 29.371094 54.171875 25.65625 52.722656 C 20.992188 50.9375 23.035156 53.601562 23.949219 54.339844 C 22.703125 54.558594 25.597656 55.183594 25.226562 55.195312 Z M 12.21875 47.167969 C 12.730469 45.515625 7.511719 38.074219 9.757812 43.4375 C 10.566406 44.558594 10.480469 46.691406 12.21875 47.167969 Z M 36.097656 58.679688 C 34.621094 57.714844 36.023438 58.535156 36.097656 58.679688 Z M 39.710938 59.339844 C 39.710938 57.585938 35.71875 58.625 39.710938 59.339844 Z M 71.097656 74.800781 C 70.492188 73.605469 68.726562 74.773438 71.097656 74.800781 Z M 72.605469 75.660156 C 72.378906 74.992188 71.730469 75.789062 72.605469 75.660156 Z M 85.035156 81.789062 C 86.234375 81.097656 83.542969 81.699219 85.035156 81.789062 Z M 18.714844 48.464844 C 22.140625 47.425781 15.054688 47.722656 18.714844 48.464844 Z M 68.328125 72.902344 C 68.289062 71.171875 66.144531 73.335938 68.328125 72.902344 Z M 17.371094 46 C 19.566406 45.417969 15.332031 45.621094 17.371094 46 Z M 23.746094 48.417969 C 23.707031 47.847656 23.070312 48.636719 23.746094 48.417969 Z M 101.546875 85.71875 C 104.375 85.273438 110.8125 86.84375 111.855469 85.136719 C 108.425781 85.070312 99.980469 83.238281 99.582031 85.570312 L 100.335938 85.664062 Z M 25.769531 48.816406 C 25.824219 47.0625 24.015625 48.75 25.769531 48.816406 Z M 8.996094 39.71875 C 8.242188 36.378906 6.105469 39.214844 8.996094 39.71875 Z M 13 40.503906 C 13.046875 39.433594 9.339844 39.539062 13 40.503906 Z M 15.285156 41.382812 C 14.628906 40.964844 14.769531 41.90625 15.285156 41.382812 Z M 29.664062 48.597656 C 30.34375 48.109375 28.0625 48.238281 29.664062 48.597656 Z M 13.761719 39.40625 C 13.371094 36.878906 9.132812 39.027344 13.761719 39.40625 Z M 5.5625 35.242188 C 5.449219 34.082031 4.765625 35.679688 5.5625 35.242188 Z M 6.785156 34.527344 C 6.585938 33.144531 5.734375 34.699219 6.785156 34.527344 Z M 13.519531 37.667969 C 16.371094 36.796875 8.328125 35.859375 12.941406 37.503906 Z M 103.710938 81.226562 C 105.539062 79.921875 101.394531 80.820312 103.710938 81.226562 Z M 114.609375 85.644531 C 115.335938 83.953125 112.761719 85.859375 114.609375 85.644531 Z M 14.207031 34.910156 C 14.515625 33.273438 11.949219 35.234375 14.207031 34.910156 Z M 4.621094 29.886719 C 4.109375 27.578125 4.175781 23.527344 9.109375 24.894531 C 2.527344 25.914062 13.65625 31.285156 12.253906 27.046875 C 15.019531 27.152344 17.660156 25.765625 16.207031 27.863281 C 21.652344 27.394531 25.433594 23.703125 30.695312 24.222656 C 34.792969 23.796875 39.273438 23.472656 43.695312 22.183594 C 47.324219 21.980469 50.824219 18.921875 48.832031 17.105469 C 43.882812 16.78125 38.691406 17.269531 33.222656 18.117188 C 27.15625 19.105469 21.640625 20.976562 15.523438 21.785156 C 9.558594 22.410156 16.722656 23.503906 15.011719 23.753906 C 11.902344 24.597656 18.726562 25.164062 14.609375 26.058594 C 12.066406 25.679688 9.425781 24.996094 10.503906 22.902344 C 4.792969 23.484375 -0.230469 25.335938 4.289062 29.882812 L 4.621094 29.882812 Z M 18.394531 24.402344 C 19.730469 20.542969 25.570312 27.578125 20.585938 24.914062 C 19.996094 24.566406 19.011719 24.28125 18.394531 24.402344 Z M 18.65625 22.527344 C 20.585938 21.402344 19.679688 23.164062 18.65625 22.527344 Z M 21.109375 22.5625 C 21.28125 20.785156 26.730469 23.5 22.003906 23.199219 Z M 24.46875 21.507812 C 25.699219 20.382812 24.824219 22.5 24.46875 21.507812 Z M 25.328125 21.054688 C 27.371094 19.136719 36.890625 19.832031 29.925781 20.867188 C 28.054688 19.765625 26.625 21.519531 25.328125 21.054688 Z M 37.757812 19.554688 C 37.449219 14.316406 43.933594 21.417969 37.757812 19.554688 Z M 41.285156 19.539062 C 42.574219 16.898438 46.292969 18.480469 41.882812 19.011719 C 41.976562 19.292969 41.75 20.375 41.285156 19.539062 Z M 12.824219 33.554688 C 16.667969 31.707031 8.726562 31.953125 12.824219 33.554688 Z M 15.667969 34.167969 C 17.023438 33.050781 12.730469 33.71875 15.667969 34.167969 Z M 7.273438 29.511719 C 9.480469 28.191406 4.667969 29.015625 7.273438 29.511719 Z M 121.039062 85.160156 C 121.101562 83.625 119.355469 85.847656 121.039062 85.160156 Z M 109.476562 78.988281 C 109.800781 77.226562 107.992188 79.144531 109.476562 78.988281 Z M 124.21875 85.757812 C 127.292969 85.761719 133.542969 85.007812 126.847656 85.007812 C 125.789062 85.136719 120.71875 85.109375 124.21875 85.757812 Z M 18.179688 33.085938 C 20.667969 32.957031 22.070312 30.9375 17.695312 31.050781 C 10.902344 30.507812 23.679688 32.875 16.820312 32.195312 C 15.902344 32.671875 18.117188 33.222656 18.179688 33.085938 Z M 20.367188 33.953125 C 20.109375 32.707031 19.601562 34.621094 20.367188 33.953125 Z M 22.96875 28.53125 C 24.050781 27.480469 21.476562 28.246094 22.96875 28.53125 Z M 14.6875 17.699219 C 19.132812 16.523438 25.214844 15.191406 27.3125 18.289062 C 25.175781 16.273438 26.445312 14.300781 28.464844 17.238281 C 31.316406 20.207031 32.746094 15.882812 30.894531 14.886719 C 33.011719 16.941406 35.414062 17.914062 32.304688 15.015625 C 35.679688 11.84375 25.550781 15.433594 23.253906 15.394531 C 22.148438 15.785156 11.820312 17.457031 14.6875 17.699219 Z M 17.289062 13.804688 C 19.824219 12.308594 26.0625 14.695312 22.058594 12.316406 C 21.667969 12.046875 13.300781 14.121094 17.289062 13.804688 Z M 26.53125 14.101562 C 29.5 14.15625 25.261719 10.984375 28.789062 12.421875 C 28.214844 10.945312 24.671875 10.660156 22.945312 10.070312 C 21.964844 11.429688 24.933594 14.121094 26.53125 14.101562 Z M 18.914062 7.539062 C 19.9375 6.453125 17.109375 8.09375 18.914062 7.539062 Z M 22.691406 8.246094 C 27.476562 7.75 21.46875 6.636719 21.726562 8.207031 Z M 15.636719 3.933594 C 12.265625 0.496094 21.964844 4.507812 18.550781 0.910156 C 15.667969 -0.878906 12.902344 2.925781 15.636719 3.933594 Z M 58.847656 22.125 C 60.386719 19.992188 52.46875 19.246094 57.804688 21.371094 C 58.292969 21.5 58.183594 22.277344 58.847656 22.125 Z M 27.492188 101.789062 C 27.148438 102.84375 26.9375 104.609375 26.855469 107.097656 C 26.855469 107.585938 26.578125 107.832031 26.015625 107.832031 C 25.453125 107.832031 25.0625 107.617188 24.835938 107.191406 C 24.230469 106.042969 23.660156 105.242188 23.117188 104.785156 C 22.472656 104.253906 21.613281 103.929688 20.554688 103.816406 C 19.402344 103.675781 16.542969 103.609375 11.980469 103.609375 C 10.9375 103.609375 10.246094 103.691406 9.929688 103.871094 C 9.730469 103.976562 9.632812 104.210938 9.632812 104.574219 L 9.632812 115.261719 C 9.632812 115.625 9.921875 115.796875 10.5 115.78125 C 12.292969 115.765625 14.886719 115.667969 18.285156 115.496094 C 18.953125 115.4375 19.398438 115.261719 19.632812 114.988281 C 19.863281 114.710938 20.089844 114.003906 20.308594 112.855469 C 20.449219 112.226562 20.925781 111.980469 21.726562 112.125 C 22.414062 112.230469 22.703125 112.476562 22.605469 112.855469 C 22.039062 114.996094 21.859375 117.78125 22.058594 121.210938 C 22.082031 121.617188 21.746094 121.839844 21.0625 121.871094 C 20.5 121.917969 20.148438 121.675781 20.011719 121.164062 C 19.488281 119.195312 18.515625 118.148438 17.097656 118.011719 C 15.675781 117.875 13.367188 117.808594 10.167969 117.808594 C 9.808594 117.808594 9.632812 117.914062 9.632812 118.117188 L 9.632812 128.738281 C 9.632812 129.523438 10.003906 130.058594 10.746094 130.339844 C 11.328125 130.578125 12.582031 130.785156 14.515625 130.976562 C 15.503906 131.054688 15.933594 131.394531 15.816406 131.992188 C 15.6875 132.511719 14.808594 132.714844 13.152344 132.605469 C 8.386719 132.304688 4.453125 132.320312 1.363281 132.652344 C 0.492188 132.746094 0.0585938 132.472656 0.0585938 131.824219 C 0.0585938 131.414062 0.492188 131.183594 1.363281 131.121094 C 3.332031 130.949219 4.316406 129.59375 4.316406 127.058594 L 4.316406 106.859375 C 4.316406 105.824219 4.078125 105.027344 3.601562 104.464844 C 3.132812 103.910156 2.25 103.402344 0.96875 102.945312 C 0.160156 102.664062 -0.140625 102.273438 0.0585938 101.789062 C 0.160156 101.488281 0.324219 101.324219 0.542969 101.292969 C 0.742188 101.246094 1.277344 101.277344 2.144531 101.386719 C 3.410156 101.542969 6.394531 101.625 11.101562 101.625 C 16.65625 101.625 21.457031 101.527344 25.5 101.339844 C 26.84375 101.277344 27.523438 101.367188 27.523438 101.601562 C 27.523438 101.664062 27.515625 101.722656 27.492188 101.789062 Z M 47.058594 131.742188 C 47.058594 132.371094 46.609375 132.648438 45.707031 132.570312 C 42.933594 132.359375 39.488281 132.394531 35.386719 132.660156 C 34.554688 132.726562 34.050781 132.710938 33.859375 132.617188 C 33.667969 132.515625 33.574219 132.261719 33.574219 131.835938 C 33.574219 131.457031 34.117188 131.136719 35.222656 130.878906 C 36.316406 130.617188 36.859375 129.84375 36.859375 128.554688 L 36.859375 107.203125 C 36.859375 105.929688 36.628906 104.992188 36.15625 104.390625 C 35.679688 103.796875 34.847656 103.332031 33.660156 103 C 33.039062 102.828125 32.726562 102.582031 32.726562 102.273438 C 32.726562 101.796875 33.183594 101.445312 34.085938 101.210938 C 35.453125 100.863281 36.871094 100.328125 38.339844 99.601562 C 39.546875 99.039062 40.320312 98.753906 40.636719 98.753906 C 41.378906 98.753906 41.75 99.152344 41.75 99.957031 C 41.75 99.894531 41.710938 100.679688 41.632812 102.316406 C 41.570312 103.871094 41.550781 105.410156 41.570312 106.917969 L 41.691406 127.988281 C 41.691406 128.949219 41.996094 129.644531 42.59375 130.078125 C 43.199219 130.511719 44.238281 130.796875 45.707031 130.933594 C 46.609375 131.015625 47.058594 131.285156 47.058594 131.742188 Z M 74.359375 130.347656 C 74.359375 130.683594 73.585938 131.183594 72.054688 131.847656 C 70.507812 132.515625 69.28125 132.851562 68.351562 132.851562 C 67.566406 132.851562 66.878906 132.554688 66.277344 131.957031 C 65.667969 131.355469 65.246094 131.054688 65.007812 131.054688 C 64.820312 131.054688 63.867188 131.378906 62.132812 132.023438 C 60.40625 132.667969 58.667969 132.992188 56.917969 132.992188 C 55.261719 132.992188 53.890625 132.617188 52.78125 131.863281 C 51.574219 131.023438 50.972656 129.894531 50.972656 128.460938 C 50.972656 125.738281 54.949219 123.789062 62.921875 122.609375 C 64.289062 122.40625 64.984375 121.972656 65 121.3125 L 65.066406 119.804688 C 65.183594 117.226562 63.726562 115.933594 60.683594 115.933594 C 59.824219 115.933594 59 116.539062 58.226562 117.75 C 57.453125 118.960938 56.339844 119.613281 54.890625 119.710938 C 53.242188 119.835938 52.414062 119.289062 52.414062 118.078125 C 52.414062 117.324219 53.644531 116.445312 56.101562 115.4375 C 58.675781 114.386719 61.152344 113.855469 63.523438 113.855469 C 67.609375 113.855469 69.632812 115.375 69.59375 118.410156 L 69.46875 128.132812 C 69.453125 129.152344 70.003906 129.667969 71.128906 129.667969 C 71.347656 129.667969 71.777344 129.625 72.398438 129.546875 C 73.023438 129.46875 73.378906 129.425781 73.488281 129.425781 C 74.066406 129.425781 74.359375 129.734375 74.359375 130.347656 Z M 65.066406 124.96875 C 65.085938 124.578125 64.964844 124.316406 64.714844 124.1875 C 64.460938 124.066406 64.070312 124.039062 63.523438 124.121094 C 58.675781 124.796875 56.253906 126.03125 56.253906 127.828125 C 56.253906 129.636719 57.507812 130.542969 60.023438 130.542969 C 61.027344 130.542969 62.066406 130.390625 63.125 130.09375 C 64.382812 129.746094 65.007812 129.328125 65.007812 128.839844 Z M 96.792969 127.632812 C 96.792969 129.304688 95.972656 130.628906 94.332031 131.613281 C 92.695312 132.59375 90.457031 133.082031 87.625 133.082031 C 85.730469 133.082031 83.832031 132.929688 81.953125 132.617188 C 80.316406 132.328125 79.375 132.070312 79.105469 131.835938 C 78.949219 131.617188 78.867188 130.542969 78.867188 128.605469 C 78.867188 127.769531 79.105469 127.335938 79.59375 127.308594 C 80.078125 127.261719 80.488281 127.460938 80.828125 127.917969 C 82.34375 129.976562 84.777344 131.007812 88.136719 131.007812 C 90.96875 131.007812 92.390625 130.238281 92.390625 128.699219 C 92.390625 128.023438 92.070312 127.457031 91.417969 127 C 90.714844 126.480469 89.347656 125.875 87.320312 125.183594 C 84.375 124.15625 82.421875 123.265625 81.429688 122.496094 C 80.363281 121.671875 79.832031 120.574219 79.832031 119.1875 C 79.832031 117.492188 80.667969 116.167969 82.34375 115.222656 C 83.886719 114.3125 85.957031 113.855469 88.550781 113.855469 C 90.1875 113.855469 91.671875 113.957031 93.027344 114.160156 C 94.472656 114.371094 95.222656 114.621094 95.289062 114.914062 C 95.449219 115.800781 95.78125 117.074219 96.285156 118.738281 C 96.34375 118.941406 96.058594 119.109375 95.4375 119.238281 C 94.769531 119.347656 94.332031 119.257812 94.105469 118.976562 C 92.523438 116.945312 90.511719 115.929688 88.074219 115.929688 C 85.316406 115.929688 83.9375 116.621094 83.9375 118.011719 C 83.9375 118.78125 84.308594 119.394531 85.054688 119.847656 C 85.71875 120.242188 87.28125 120.855469 89.734375 121.691406 C 92.3125 122.558594 94.058594 123.332031 94.984375 124.023438 C 96.191406 124.925781 96.792969 126.125 96.792969 127.632812 Z M 132.300781 131.761719 C 132.300781 132.3125 131.824219 132.605469 130.878906 132.636719 C 129.476562 132.652344 127.628906 132.730469 125.359375 132.878906 C 124.230469 133.050781 123.429688 132.9375 122.941406 132.546875 C 119.765625 129.871094 117.070312 127.074219 114.851562 124.144531 C 114.675781 123.894531 114.441406 123.769531 114.164062 123.769531 C 113.820312 123.769531 113.230469 124.003906 112.382812 124.476562 C 111.4375 124.882812 110.964844 125.464844 110.964844 126.21875 C 110.964844 126.753906 110.984375 127.523438 111.027344 128.535156 C 111.066406 129.539062 111.382812 130.195312 111.988281 130.515625 C 112.410156 130.730469 113.386719 130.910156 114.914062 131.035156 C 115.863281 131.128906 116.335938 131.402344 116.335938 131.863281 C 116.335938 132.222656 116.261719 132.445312 116.109375 132.53125 C 115.957031 132.617188 115.554688 132.636719 114.914062 132.589844 C 112.902344 132.449219 109.503906 132.53125 104.710938 132.824219 C 103.511719 132.910156 102.855469 132.789062 102.757812 132.472656 C 102.71875 132.359375 102.699219 132.207031 102.699219 132.003906 C 102.699219 131.515625 103.308594 131.144531 104.53125 130.894531 C 105.644531 130.671875 106.195312 129.65625 106.195312 127.847656 L 106.195312 107.222656 C 106.195312 105.9375 106.035156 105.039062 105.710938 104.535156 C 105.273438 103.886719 104.339844 103.390625 102.9375 103.027344 C 102.269531 102.855469 101.9375 102.609375 101.9375 102.292969 C 101.9375 101.839844 102.410156 101.488281 103.359375 101.230469 C 104.878906 100.835938 106.324219 100.289062 107.671875 99.601562 C 108.78125 99.039062 109.464844 98.753906 109.722656 98.753906 C 110.554688 98.753906 110.964844 99.160156 110.964844 99.980469 C 110.964844 99.875 110.953125 100.652344 110.933594 102.316406 C 110.914062 103.855469 110.898438 105.402344 110.90625 106.941406 L 110.964844 121.714844 C 110.964844 122.125 111.105469 122.328125 111.382812 122.328125 C 111.6875 122.328125 112.152344 122.125 112.773438 121.714844 C 114.441406 120.6875 116.492188 119.355469 118.929688 117.703125 C 119.414062 117.308594 119.652344 116.996094 119.652344 116.757812 C 119.652344 116.335938 118.84375 116.035156 117.210938 115.863281 C 116.507812 115.800781 116.175781 115.492188 116.214844 114.941406 C 116.273438 114.390625 116.625 114.15625 117.269531 114.234375 C 118.722656 114.390625 120.835938 114.476562 123.609375 114.492188 C 125.539062 114.507812 127.464844 114.515625 129.375 114.515625 C 129.992188 114.53125 130.308594 114.824219 130.308594 115.390625 C 130.308594 115.925781 129.8125 116.21875 128.832031 116.261719 C 127.277344 116.308594 125.816406 116.585938 124.457031 117.089844 C 122.539062 117.765625 120.5 118.953125 118.328125 120.652344 C 118.164062 120.746094 118.085938 120.867188 118.085938 121.007812 C 118.085938 121.226562 118.425781 121.757812 119.113281 122.589844 C 121.625 125.574219 124 127.828125 126.238281 129.359375 C 127.664062 130.316406 128.996094 130.796875 130.242188 130.796875 C 131.171875 130.796875 131.746094 130.847656 131.96875 130.949219 C 132.1875 131.054688 132.300781 131.328125 132.300781 131.761719 Z M 132.300781 131.761719 "/>
</g>
</svg>
