<?xml version="1.0" encoding="UTF-8"?>
<svg xmlns="http://www.w3.org/2000/svg" xmlns:xlink="http://www.w3.org/1999/xlink" width="133pt" height="133pt" viewBox="0 0 133 133" version="1.1">
<g id="surface1">
<path style=" stroke:none;fill-rule:nonzero;fill:rgb(38.039216%,85.490196%,98.431373%);fill-opacity:1;" d="M 105.179688 66.386719 C 105.179688 59.109375 98.761719 52.214844 88.910156 47.9375 C 91.1875 33.695312 90.175781 22.367188 85.726562 18.738281 C 84.703125 17.886719 83.5 17.484375 82.191406 17.484375 L 82.191406 22.484375 C 82.917969 22.484375 83.5 22.679688 83.988281 23.058594 C 86.132812 24.804688 87.066406 31.457031 86.339844 40.011719 C 86.164062 42.117188 85.882812 44.332031 85.535156 46.59375 C 82.445312 45.519531 79.066406 44.691406 75.515625 44.148438 C 73.382812 40.011719 71.175781 36.25 68.953125 32.957031 C 74.097656 26.171875 78.921875 22.460938 82.207031 22.460938 L 82.207031 17.460938 C 77.867188 17.460938 72.1875 21.851562 66.445312 29.464844 C 60.699219 21.894531 55.019531 17.550781 50.679688 17.550781 L 50.679688 22.550781 C 53.945312 22.550781 58.792969 26.238281 63.933594 32.980469 C 61.726562 36.273438 59.515625 40.011719 57.414062 44.148438 C 53.851562 44.691406 50.472656 45.519531 47.378906 46.617188 C 47.015625 44.378906 46.75 42.207031 46.5625 40.125 C 45.820312 31.570312 46.734375 24.917969 48.863281 23.148438 C 49.339844 22.746094 49.949219 22.574219 50.679688 22.574219 L 50.679688 17.574219 C 49.355469 17.574219 48.15625 17.976562 47.109375 18.828125 C 42.675781 22.460938 41.683594 33.765625 43.972656 47.960938 C 34.15625 52.261719 27.769531 59.128906 27.769531 66.386719 C 27.769531 73.664062 34.1875 80.5625 44.035156 84.839844 C 41.765625 99.074219 42.773438 110.40625 47.222656 114.027344 C 48.25 114.878906 49.449219 115.289062 50.773438 115.289062 C 55.113281 115.289062 60.792969 110.898438 66.539062 103.285156 C 72.28125 110.847656 77.960938 115.191406 82.300781 115.191406 C 83.625 115.191406 84.828125 114.796875 85.867188 113.9375 C 90.304688 110.316406 91.296875 99.007812 89.003906 84.816406 C 98.792969 80.539062 105.179688 73.640625 105.179688 66.386719 Z M 84.636719 51.449219 C 84.050781 54.34375 83.324219 57.316406 82.507812 60.292969 C 81.863281 58.507812 81.179688 56.710938 80.4375 54.921875 C 79.714844 53.132812 78.9375 51.382812 78.167969 49.679688 C 80.40625 50.15625 82.570312 50.734375 84.636719 51.449219 Z M 77.410156 75.296875 C 76.175781 78.320312 74.917969 81.183594 73.605469 83.851562 C 71.253906 84.136719 68.875 84.296875 66.476562 84.296875 C 64.089844 84.296875 61.710938 84.136719 59.371094 83.875 C 58.0625 81.203125 56.785156 78.367188 55.550781 75.367188 C 54.355469 72.433594 53.269531 69.453125 52.273438 66.453125 C 53.25 63.453125 54.355469 60.453125 55.535156 57.523438 C 56.769531 54.496094 58.03125 51.628906 59.339844 48.96875 C 61.695312 48.679688 64.074219 48.515625 66.476562 48.515625 C 68.859375 48.515625 71.238281 48.679688 73.574219 48.945312 C 74.886719 51.605469 76.160156 54.449219 77.394531 57.457031 C 78.589844 60.382812 79.683594 63.363281 80.675781 66.363281 C 79.683594 69.363281 78.589844 72.363281 77.410156 75.296875 Z M 82.507812 72.386719 C 83.355469 75.386719 84.082031 78.390625 84.6875 81.292969 C 82.617188 82.011719 80.4375 82.621094 78.183594 83.085938 C 78.953125 81.363281 79.730469 79.597656 80.453125 77.785156 C 81.179688 75.992188 81.863281 74.179688 82.507812 72.386719 Z M 66.507812 96.277344 C 65.035156 94.125 63.570312 91.730469 62.117188 89.117188 C 63.539062 89.203125 64.988281 89.273438 66.460938 89.273438 C 67.941406 89.273438 69.410156 89.226562 70.84375 89.117188 C 69.425781 91.730469 67.957031 94.125 66.507812 96.277344 Z M 54.765625 83.085938 C 52.523438 82.621094 50.363281 82.035156 48.296875 81.316406 C 48.878906 78.433594 49.605469 75.457031 50.425781 72.476562 C 51.074219 74.269531 51.75 76.058594 52.492188 77.847656 C 53.234375 79.644531 53.992188 81.382812 54.765625 83.085938 Z M 66.429688 36.496094 C 67.894531 38.644531 69.363281 41.042969 70.8125 43.660156 C 69.394531 43.574219 67.941406 43.503906 66.476562 43.503906 C 64.988281 43.503906 63.523438 43.550781 62.085938 43.660156 C 63.507812 41.042969 64.972656 38.644531 66.429688 36.496094 Z M 54.746094 49.679688 C 53.976562 51.40625 53.203125 53.179688 52.476562 54.988281 C 51.75 56.777344 51.074219 58.574219 50.425781 60.363281 C 49.574219 57.367188 48.847656 54.367188 48.25 51.449219 C 50.316406 50.753906 52.492188 50.15625 54.746094 49.679688 Z M 40.46875 77.71875 C 34.878906 74.335938 31.269531 69.902344 31.269531 66.386719 C 31.269531 62.871094 34.878906 58.414062 40.46875 55.054688 C 41.828125 54.230469 43.308594 53.488281 44.839844 52.792969 C 45.742188 57.183594 46.921875 61.75 48.394531 66.429688 C 46.9375 71.089844 45.773438 75.632812 44.886719 79.996094 C 43.324219 79.308594 41.84375 78.546875 40.46875 77.71875 Z M 48.957031 109.707031 C 46.8125 107.964844 45.882812 101.3125 46.609375 92.761719 C 46.78125 90.65625 47.0625 88.4375 47.410156 86.175781 C 50.503906 87.25 53.882812 88.085938 57.429688 88.617188 C 59.5625 92.761719 61.773438 96.523438 63.996094 99.8125 C 58.855469 106.597656 54.023438 110.316406 50.742188 110.316406 C 50.03125 110.292969 49.433594 110.09375 48.957031 109.707031 Z M 86.386719 92.648438 C 87.128906 101.203125 86.214844 107.851562 84.082031 109.617188 C 83.609375 110.023438 82.996094 110.203125 82.269531 110.203125 C 79 110.203125 74.160156 106.503906 69.015625 99.769531 C 71.222656 96.476562 73.429688 92.738281 75.53125 88.59375 C 79.097656 88.0625 82.476562 87.230469 85.566406 86.136719 C 85.929688 88.394531 86.214844 90.566406 86.386719 92.648438 Z M 92.464844 77.71875 C 91.105469 78.546875 89.625 79.285156 88.089844 79.972656 C 87.195312 75.589844 86.007812 71.019531 84.542969 66.339844 C 85.992188 61.683594 87.164062 57.136719 88.042969 52.769531 C 89.605469 53.464844 91.089844 54.230469 92.480469 55.054688 C 98.066406 58.4375 101.679688 62.871094 101.679688 66.386719 C 101.664062 69.902344 98.050781 74.359375 92.464844 77.71875 Z M 92.464844 77.71875 "/>
<path style=" stroke:none;fill-rule:nonzero;fill:rgb(38.039216%,85.490196%,98.431373%);fill-opacity:1;" d="M 73.667969 66.386719 C 73.667969 72.035156 70.441406 76.621094 66.460938 76.621094 C 62.472656 76.621094 59.246094 72.035156 59.246094 66.386719 C 59.246094 60.730469 62.472656 56.152344 66.460938 56.152344 C 70.441406 56.152344 73.667969 60.730469 73.667969 66.386719 Z M 73.667969 66.386719 "/>
</g>
</svg>
